:FULLY-SPECIFIED
:FORCE-ALL-JOINTS-BE-3DOF
:DEGREES
1223
root -0.843739 14.6668 -17.0053 372.369 18.7976 363.097
lfemur 5.36142 -0.13771 -7.70819
ltibia 37.2298 0 0
lfoot 0.438785 7.72949 0
ltoes -31.1013 0 0
rfemur -54.2516 -13.4784 21.0272
rtibia 78.2599 0 0
rfoot -19.498 -21.1563 0
rtoes 3.63001 0 0
lowerback 12.7807 0.981571 -4.95323
upperback -3.88077 0.412784 -0.454604
thorax -11.4926 0.531012 2.20949
lowerneck -1.20692 -8.91295 -10.1857
upperneck 0.576954 -11.938 10.9942
head 1.64972 -5.91905 4.58634
lclavicle 1.02068e-14 -1.02642e-14 0
lhumerus -61.7367 -28.1396 114.732
lradius 92.7366 0 0
lwrist 21.0103 0 0
lhand -21.0313 24.7103 0
lfingers 7.12502 0 0
lthumb 2.2533 54.069 0
rclavicle 7.33399e-15 6.26554e-15 0
rhumerus 66.5966 3.67658 -27.3588
rradius 93.6484 0 0
rwrist -9.34249 0 0
rhand -30.4982 -35.215 0
rfingers 7.12502 0 0
rthumb -3.39652 -64.1352 0
1224
root -0.871568 14.7097 -16.8237 372.27 17.9789 362.53
lfemur 5.12715 -0.366482 -7.71802
ltibia 40.6189 0 0
lfoot 1.33142 6.25744 0
ltoes -31.2536 0 0
rfemur -53.4612 -12.8357 21.5401
rtibia 77.8289 0 0
rfoot -20.0467 -21.3419 0
rtoes 2.74107 0 0
lowerback 12.5921 1.03858 -4.60243
upperback -3.91714 0.566941 -0.388959
thorax -11.4266 0.581288 2.04951
lowerneck -1.44784 -8.77136 -10.1029
upperneck 0.710645 -11.7383 11.0072
head 1.70325 -5.81135 4.57446
lclavicle 5.79056e-15 -9.22247e-15 0
lhumerus -61.2957 -28.5371 115.166
lradius 91.7395 0 0
lwrist 18.3483 0 0
lhand -22.1052 24.3791 0
lfingers 7.12502 0 0
lthumb 1.61726 53.8028 0
rclavicle 8.2763e-15 6.63635e-15 0
rhumerus 66.6829 4.33341 -27.3268
rradius 93.743 0 0
rwrist -10.2162 0 0
rhand -30.0956 -35.3455 0
rfingers 7.12502 0 0
rthumb -3.08625 -64.1683 0
1225
root -0.895837 14.7513 -16.6457 372.147 17.2193 362.02
lfemur 4.89288 -0.595254 -7.72786
ltibia 44.0081 0 0
lfoot 2.22405 4.7854 0
ltoes -31.406 0 0
rfemur -52.6707 -12.193 22.053
rtibia 77.3979 0 0
rfoot -20.5955 -21.5276 0
rtoes 1.85212 0 0
lowerback 12.3681 1.09665 -4.25266
upperback -3.86817 0.725161 -0.319606
thorax -11.2422 0.630565 1.89515
lowerneck -1.67461 -8.65364 -9.96979
upperneck 0.685533 -11.5597 10.9291
head 1.7014 -5.71633 4.53129
lclavicle 1.37429e-15 -8.18076e-15 0
lhumerus -58.0468 -28.7891 114.014
lradius 90.7425 0 0
lwrist 15.6862 0 0
lhand -23.179 24.0479 0
lfingers 7.12502 0 0
lthumb 0.981218 53.5367 0
rclavicle 9.21861e-15 7.00716e-15 0
rhumerus 66.7693 4.99023 -27.2947
rradius 93.8376 0 0
rwrist -11.0898 0 0
rhand -29.6931 -35.4759 0
rfingers 7.12502 0 0
rthumb -2.77599 -64.2015 0
1226
root -0.917583 14.7968 -16.4691 371.989 16.5791 361.471
lfemur 4.65861 -0.824026 -7.7377
ltibia 47.3973 0 0
lfoot 3.11669 3.31336 0
ltoes -31.5583 0 0
rfemur -51.8803 -11.5503 22.5659
rtibia 76.9669 0 0
rfoot -21.1442 -21.7132 0
rtoes 0.963178 0 0
lowerback 12.2803 1.11667 -3.76686
upperback -3.97993 0.84171 -0.262421
thorax -11.313 0.657071 1.65739
lowerneck -1.31767 -8.46539 -9.82138
upperneck 0.520841 -11.3244 10.834
head 1.55612 -5.61108 4.51416
lclavicle -3.04198e-15 -7.13905e-15 0
lhumerus -54.7979 -29.0411 112.861
lradius 89.7454 0 0
lwrist 13.0241 0 0
lhand -24.2529 23.7167 0
lfingers 7.12502 0 0
lthumb 0.345178 53.2705 0
rclavicle 1.01609e-14 7.37798e-15 0
rhumerus 66.8557 5.64705 -27.2626
rradius 93.9322 0 0
rwrist -11.9635 0 0
rhand -29.2905 -35.6063 0
rfingers 7.12502 0 0
rthumb -2.46573 -64.2346 0
1227
root -0.933418 14.8341 -16.2978 371.781 15.9635 360.914
lfemur 4.42434 -1.0528 -7.74753
ltibia 50.7865 0 0
lfoot 4.00932 1.84132 0
ltoes -31.7106 0 0
rfemur -51.0898 -10.9076 23.0789
rtibia 76.5358 0 0
rfoot -21.693 -21.8989 0
rtoes 0.074233 0 0
lowerback 12.1678 1.13507 -3.21538
upperback -3.9285 0.974192 -0.168663
thorax -11.1836 0.68288 1.42124
lowerneck -1.37643 -8.32623 -9.7133
upperneck 0.407903 -11.124 10.7363
head 1.4999 -5.51092 4.47936
lclavicle -7.45825e-15 -6.09734e-15 0
lhumerus -51.549 -29.2931 111.709
lradius 88.7484 0 0
lwrist 10.362 0 0
lhand -25.3268 23.3855 0
lfingers 7.12502 0 0
lthumb -0.290863 53.0044 0
rclavicle 1.11032e-14 7.74879e-15 0
rhumerus 66.942 6.30387 -27.2305
rradius 94.0268 0 0
rwrist -12.8372 0 0
rhand -28.8879 -35.7367 0
rfingers 7.12502 0 0
rthumb -2.15546 -64.2677 0
1228
root -0.94534 14.8652 -16.1299 371.59 15.4116 360.45
lfemur 4.19007 -1.28157 -7.75737
ltibia 54.1757 0 0
lfoot 4.90196 0.369276 0
ltoes -31.8629 0 0
rfemur -50.2993 -10.2649 23.5918
rtibia 76.1048 0 0
rfoot -22.2417 -22.0845 0
rtoes -0.814712 0 0
lowerback 12.1196 1.13454 -2.68019
upperback -3.91438 1.07139 -0.10031
thorax -11.1316 0.693962 1.17327
lowerneck -1.34762 -8.16195 -9.64029
upperneck 0.285209 -10.8971 10.6857
head 1.42901 -5.39973 4.46919
lclavicle -1.18745e-14 -5.05563e-15 0
lhumerus -48.3001 -29.5451 110.557
lradius 87.7514 0 0
lwrist 7.69994 0 0
lhand -26.4007 23.0543 0
lfingers 7.12502 0 0
lthumb -0.926903 52.7382 0
rclavicle 1.20456e-14 8.1196e-15 0
rhumerus 67.0284 6.9607 -27.1984
rradius 94.1214 0 0
rwrist -13.9992 0 0
rhand -28.4854 -35.8671 0
rfingers 7.12502 0 0
rthumb -1.8452 -64.3009 0
1229
root -0.951591 14.8919 -15.9638 371.469 14.7835 360.028
lfemur 1.58315 -0.891637 -8.26973
ltibia 57.5648 0 0
lfoot 5.79459 -1.10277 0
ltoes -32.0152 0 0
rfemur -49.5089 -9.62222 24.1047
rtibia 75.6738 0 0
rfoot -22.7905 -22.2702 0
rtoes -1.70366 0 0
lowerback 11.9814 1.15439 -2.18725
upperback -3.89818 1.19247 -0.0143693
thorax -11.025 0.720177 0.964647
lowerneck -1.41673 -8.00637 -9.444
upperneck 0.294299 -10.679 10.4106
head 1.39432 -5.29071 4.36502
lclavicle -1.62908e-14 -4.01392e-15 0
lhumerus -45.0512 -29.7971 109.404
lradius 86.7543 0 0
lwrist 5.03787 0 0
lhand -27.4745 22.7231 0
lfingers 7.12502 0 0
lthumb -1.56294 52.4721 0
rclavicle 1.29879e-14 8.49041e-15 0
rhumerus 67.1148 7.61752 -27.1663
rradius 94.216 0 0
rwrist -15.1611 0 0
rhand -28.0828 -35.9976 0
rfingers 7.12502 0 0
rthumb -1.53493 -64.334 0
1230
root -0.953158 14.9143 -15.7997 371.236 14.2105 359.595
lfemur -1.02376 -0.501703 -8.78209
ltibia 60.954 0 0
lfoot 6.68723 -2.57481 0
ltoes -32.1675 0 0
rfemur -48.7184 -8.97952 24.6176
rtibia 75.2428 0 0
rfoot -23.3392 -22.4558 0
rtoes -2.5926 0 0
lowerback 11.9229 1.16872 -1.63527
upperback -3.84452 1.31579 0.104342
thorax -10.9222 0.745058 0.757189
lowerneck -1.43379 -7.81017 -9.25668
upperneck 0.221067 -10.4047 10.1026
head 1.32115 -5.15577 4.25891
lclavicle -2.07071e-14 -2.97221e-15 0
lhumerus -41.8023 -30.0491 108.252
lradius 85.7573 0 0
lwrist 2.37579 0 0
lhand -28.5484 22.3918 0
lfingers 7.12502 0 0
lthumb -2.19898 52.2059 0
rclavicle 1.39302e-14 8.86122e-15 0
rhumerus 67.2011 8.27434 -27.1342
rradius 95.4746 0 0
rwrist -16.3231 0 0
rhand -27.6803 -36.128 0
rfingers 7.12502 0 0
rthumb -1.22467 -64.3671 0
